<svg width="98" height="98" viewBox="0 0 98 98" fill="none" xmlns="http://www.w3.org/2000/svg">
<g clip-path="url(#clip0_182_188)">
<path fill-rule="evenodd" clip-rule="evenodd" d="M26.341 2.19106C27.1515 3.32195 27.48 4.72832 27.2542 6.10122C27.0284 7.47411 26.267 8.70126 25.137 9.51306C20.6104 12.7651 16.9224 17.0472 14.3773 22.0059C11.8323 26.9645 10.5033 32.4574 10.5 38.0311C10.5 39.4234 9.94688 40.7588 8.96231 41.7434C7.97775 42.7279 6.64239 43.2811 5.25 43.2811C3.85761 43.2811 2.52226 42.7279 1.53769 41.7434C0.553123 40.7588 0 39.4234 0 38.0311C0.00253185 30.7899 1.728 23.6533 5.03384 17.2108C8.33969 10.7683 13.131 5.20481 19.012 0.980063C19.5722 0.577652 20.2062 0.289575 20.8778 0.132293C21.5494 -0.0249892 22.2454 -0.0483924 22.926 0.0634204C23.6066 0.175233 24.2585 0.42007 24.8445 0.78394C25.4305 1.14781 25.939 1.62358 26.341 2.18406V2.19106ZM26.726 17.9761C31.1314 13.5707 36.7441 10.5705 42.8546 9.35507C48.965 8.13961 55.2987 8.76342 61.0546 11.1476C66.8105 13.5318 71.7301 17.5693 75.1914 22.7495C78.6526 27.9297 80.5001 34.0199 80.5 40.2501V64.7501C80.5 66.6066 81.2375 68.3871 82.5503 69.6998C83.863 71.0126 85.6435 71.7501 87.5 71.7501C88.4283 71.7501 89.3185 72.1188 89.9749 72.7752C90.6313 73.4316 91 74.3218 91 75.2501C91 76.1783 90.6313 77.0686 89.9749 77.7249C89.3185 78.3813 88.4283 78.7501 87.5 78.7501H10.5C9.57174 78.7501 8.6815 78.3813 8.02513 77.7249C7.36875 77.0686 7 76.1783 7 75.2501C7 74.3218 7.36875 73.4316 8.02513 72.7752C8.6815 72.1188 9.57174 71.7501 10.5 71.7501C11.4193 71.7501 12.3295 71.569 13.1788 71.2172C14.0281 70.8654 14.7997 70.3498 15.4497 69.6998C16.0998 69.0498 16.6154 68.2781 16.9672 67.4288C17.3189 66.5796 17.5 65.6693 17.5 64.7501V40.2501C17.5 36.1134 18.3147 32.0173 19.8977 28.1955C21.4807 24.3737 23.801 20.9011 26.726 17.9761ZM36.75 92.7501C36.75 91.3577 37.3031 90.0223 38.2877 89.0377C39.2723 88.0532 40.6076 87.5001 42 87.5001H56C57.3924 87.5001 58.7277 88.0532 59.7123 89.0377C60.6969 90.0223 61.25 91.3577 61.25 92.7501C61.25 94.1424 60.6969 95.4778 59.7123 96.4624C58.7277 97.4469 57.3924 98.0001 56 98.0001H42C40.6076 98.0001 39.2723 97.4469 38.2877 96.4624C37.3031 95.4778 36.75 94.1424 36.75 92.7501ZM78.988 0.980063C78.4273 0.577889 77.7928 0.290101 77.1208 0.133129C76.4489 -0.0238431 75.7526 -0.0469247 75.0717 0.0652021C74.3908 0.177329 73.7386 0.422468 73.1525 0.786623C72.5664 1.15078 72.0577 1.62682 71.6555 2.18756C71.2533 2.74831 70.9655 3.38277 70.8086 4.05474C70.6516 4.7267 70.6285 5.42301 70.7406 6.10389C70.8528 6.78478 71.0979 7.43691 71.4621 8.02306C71.8262 8.60921 72.3023 9.11789 72.863 9.52006C77.3876 12.7707 81.0745 17.0506 83.6195 22.0066C86.1644 26.9627 87.4945 32.4528 87.5 38.0241C87.5 39.4164 88.0531 40.7518 89.0377 41.7364C90.0223 42.7209 91.3576 43.2741 92.75 43.2741C94.1424 43.2741 95.4777 42.7209 96.4623 41.7364C97.4469 40.7518 98 39.4164 98 38.0241C97.9964 30.7841 96.2704 23.6488 92.9646 17.2076C89.6588 10.7665 84.868 5.20412 78.988 0.980063Z" fill="black"/>
</g>
<defs>
<clipPath id="clip0_182_188">
<rect width="98" height="98" fill="white"/>
</clipPath>
</defs>
</svg>
