<svg width="64" height="64" viewBox="0 0 64 64" fill="none" xmlns="http://www.w3.org/2000/svg">
<path d="M32.0001 36.5713C38.3119 36.5713 43.4287 31.4545 43.4287 25.1427C43.4287 18.8309 38.3119 13.7141 32.0001 13.7141C25.6883 13.7141 20.5715 18.8309 20.5715 25.1427C20.5715 31.4545 25.6883 36.5713 32.0001 36.5713Z" stroke="black" stroke-width="1.71429" stroke-linecap="round" stroke-linejoin="round"/>
<path d="M12.48 54.3999C14.5199 51.0513 17.387 48.2838 20.8055 46.3638C24.224 44.4432 28.079 43.4346 32 43.4346C35.9209 43.4346 39.7759 44.4432 43.1944 46.3638C46.6131 48.2838 49.4798 51.0513 51.5201 54.3999" stroke="black" stroke-width="1.71429" stroke-linecap="round" stroke-linejoin="round"/>
<path d="M32.0001 61.7142C48.411 61.7142 61.7143 48.4109 61.7143 31.9999C61.7143 15.5892 48.411 2.28564 32.0001 2.28564C15.5893 2.28564 2.28577 15.5892 2.28577 31.9999C2.28577 48.4109 15.5893 61.7142 32.0001 61.7142Z" stroke="black" stroke-width="1.71429" stroke-linecap="round" stroke-linejoin="round"/>
</svg>
