<svg width="282" height="72" viewBox="0 0 282 72" fill="none" xmlns="http://www.w3.org/2000/svg">
<g clip-path="url(#clip0_103_347)">
<path d="M93.0714 12V59.2836H87.3804V12H93.0714ZM124.321 22.7463C128.352 22.7463 131.672 23.9232 134.28 26.2772C136.889 28.597 138.193 31.9574 138.193 36.3582V59.2836H132.502V38.3539C132.502 34.6354 131.706 31.9403 130.114 30.2687C128.521 28.597 126.404 27.7612 123.762 27.7612C121.865 27.7612 120.087 28.1706 118.427 28.9893C116.767 29.8422 115.395 31.2068 114.311 33.0832C113.261 34.9936 112.736 37.3817 112.736 40.2473V59.2836H107.045V23.4627H112.024L112.38 29.0405C113.566 26.8913 115.192 25.3049 117.258 24.2814C119.358 23.258 121.713 22.7463 124.321 22.7463ZM170.357 51.9659L172.339 56.7761C169.967 58.9254 166.902 60 163.142 60C160.262 60 157.908 59.2154 156.079 57.6461C154.249 56.0768 153.318 53.6546 153.284 50.3795V28.4264H146.17V23.4627H153.284V14.8657L158.975 13.2793V23.4627H172.135V28.4264H158.975V49.4073C158.975 51.113 159.449 52.4094 160.398 53.2964C161.38 54.1834 162.684 54.6269 164.31 54.6269C166.58 54.6269 168.595 53.7399 170.357 51.9659ZM210.905 39.5309C210.905 40.8614 210.804 42.1919 210.6 43.5224H183.771C184.11 47.1386 185.313 49.9531 187.379 51.9659C189.445 53.9787 192.105 54.9851 195.357 54.9851C197.965 54.9851 200.133 54.5245 201.861 53.6034C203.622 52.7164 204.808 51.403 205.417 49.6631L210.194 52.1706C208.771 54.7292 206.874 56.6738 204.503 58.0043C202.132 59.3348 199.083 60 195.357 60C190.004 60 185.804 58.3454 182.755 55.0362C179.706 51.7612 178.182 47.2068 178.182 41.3731C178.182 35.5394 179.639 30.9851 182.552 27.71C185.465 24.4009 189.598 22.7463 194.95 22.7463C198.27 22.7463 201.132 23.4797 203.537 24.9467C205.976 26.4478 207.806 28.4606 209.025 30.9851C210.278 33.5096 210.905 36.3582 210.905 39.5309ZM194.95 27.7612C191.834 27.7612 189.31 28.6994 187.379 30.5757C185.448 32.4179 184.28 35.0448 183.873 38.4563H205.417C205.045 35.113 203.944 32.4861 202.115 30.5757C200.319 28.6994 197.931 27.7612 194.95 27.7612ZM238.496 22.7463C240.19 22.7463 241.494 22.9851 242.409 23.4627L241.24 29.0405C240.122 28.4264 238.632 28.1194 236.769 28.1194C235.244 28.1194 233.771 28.5629 232.348 29.4499C230.891 30.3369 229.706 31.6674 228.791 33.4414C227.843 35.2495 227.368 37.4158 227.368 39.9403V59.2836H221.677V23.4627H226.301L227.114 29.3475C229.113 24.9467 232.907 22.7463 238.496 22.7463ZM268.018 22.7463C272.049 22.7463 275.369 23.9232 277.977 26.2772C280.586 28.597 281.89 31.9574 281.89 36.3582V59.2836H276.199V38.3539C276.199 34.6354 275.403 31.9403 273.811 30.2687C272.219 28.597 270.102 27.7612 267.459 27.7612C265.562 27.7612 263.784 28.1706 262.124 28.9893C260.464 29.8422 259.092 31.2068 258.008 33.0832C256.958 34.9936 256.433 37.3817 256.433 40.2473V59.2836H250.742V23.4627H255.722L256.077 29.0405C257.263 26.8913 258.889 25.3049 260.955 24.2814C263.056 23.258 265.41 22.7463 268.018 22.7463Z" fill="white"/>
<path d="M35.7465 72C55.4897 72 71.493 55.8832 71.493 36C71.493 16.1168 55.4897 0 35.7465 0C16.0033 0 0 16.1168 0 36C0 55.8832 16.0033 72 35.7465 72ZM33.1035 14.4473H37.5718V34.4408H57.4267V38.9408H33.1035V14.4473ZM19.7901 15.4305H24.2585V47.5673H56.1689V52.0673H19.7901V15.4305Z" fill="white"/>
</g>
<defs>
<clipPath id="clip0_103_347">
<rect width="282" height="72" fill="white"/>
</clipPath>
</defs>
</svg>